<svg width="25" height="25" viewBox="0 0 86 85" fill="none" xmlns="http://www.w3.org/2000/svg">
<path fill-rule="evenodd" clip-rule="evenodd" d="M26.8015 68.5213C25.5254 67.0629 25.6732 64.8463 27.1315 63.5702L52.1835 41.6497L27.1315 19.7293C25.6732 18.4532 25.5254 16.2365 26.8015 14.7782C28.0775 13.3198 30.2942 13.172 31.7526 14.4481L58.3134 37.6889C60.7099 39.7857 60.7099 43.5137 58.3134 45.6106L31.7526 68.8514C30.2942 70.1274 28.0775 69.9796 26.8015 68.5213Z" fill="#2D6EFF"/>
<path fill-rule="evenodd" clip-rule="evenodd" d="M26.8015 68.5213C25.5254 67.0629 25.6732 64.8463 27.1315 63.5702L52.1835 41.6497L27.1315 19.7293C25.6732 18.4532 25.5254 16.2365 26.8015 14.7782C28.0775 13.3198 30.2942 13.172 31.7526 14.4481L58.3134 37.6889C60.7099 39.7857 60.7099 43.5137 58.3134 45.6106L31.7526 68.8514C30.2942 70.1274 28.0775 69.9796 26.8015 68.5213Z" fill="#203EDF" fill-opacity="0.3"/>
<path fill-rule="evenodd" clip-rule="evenodd" d="M26.8015 68.5213C25.5254 67.0629 25.6732 64.8463 27.1315 63.5702L52.1835 41.6497L27.1315 19.7293C25.6732 18.4532 25.5254 16.2365 26.8015 14.7782C28.0775 13.3198 30.2942 13.172 31.7526 14.4481L58.3134 37.6889C60.7099 39.7857 60.7099 43.5137 58.3134 45.6106L31.7526 68.8514C30.2942 70.1274 28.0775 69.9796 26.8015 68.5213Z" fill="white" fill-opacity="0.05"/>
</svg>
