<svg width="25" height="25" viewBox="0 0 85 85" fill="none" xmlns="http://www.w3.org/2000/svg">
<path fill-rule="evenodd" clip-rule="evenodd" d="M58.7634 14.7782C60.0395 16.2365 59.8917 18.4532 58.4334 19.7293L33.3814 41.6497L58.4334 63.5702C59.8917 64.8463 60.0395 67.0629 58.7634 68.5213C57.4874 69.9797 55.2707 70.1274 53.8123 68.8514L27.2515 45.6106C24.8551 43.5137 24.855 39.7857 27.2515 37.6889L53.8123 14.4481C55.2707 13.1721 57.4874 13.3198 58.7634 14.7782Z" fill="#2D6EFF"/>
<path fill-rule="evenodd" clip-rule="evenodd" d="M58.7634 14.7782C60.0395 16.2365 59.8917 18.4532 58.4334 19.7293L33.3814 41.6497L58.4334 63.5702C59.8917 64.8463 60.0395 67.0629 58.7634 68.5213C57.4874 69.9797 55.2707 70.1274 53.8123 68.8514L27.2515 45.6106C24.8551 43.5137 24.855 39.7857 27.2515 37.6889L53.8123 14.4481C55.2707 13.1721 57.4874 13.3198 58.7634 14.7782Z" fill="#203EDF" fill-opacity="0.3"/>
<path fill-rule="evenodd" clip-rule="evenodd" d="M58.7634 14.7782C60.0395 16.2365 59.8917 18.4532 58.4334 19.7293L33.3814 41.6497L58.4334 63.5702C59.8917 64.8463 60.0395 67.0629 58.7634 68.5213C57.4874 69.9797 55.2707 70.1274 53.8123 68.8514L27.2515 45.6106C24.8551 43.5137 24.855 39.7857 27.2515 37.6889L53.8123 14.4481C55.2707 13.1721 57.4874 13.3198 58.7634 14.7782Z" fill="white" fill-opacity="0.05"/>
</svg>
