<svg width="20" height="20" viewBox="0 0 85 85" fill="none" xmlns="http://www.w3.org/2000/svg">
<path fill-rule="evenodd" clip-rule="evenodd" d="M28.5118 11.4955C30.4496 11.4955 32.0205 13.0664 32.0205 15.0042V18.5129L53.0728 18.5129V15.0042C53.0728 13.0664 54.6437 11.4955 56.5816 11.4955C58.5194 11.4955 60.0903 13.0664 60.0903 15.0042V18.5129C65.9037 18.5129 70.6164 23.2256 70.6164 29.0391V43.0739V64.1263C70.6164 69.9397 65.9037 74.6524 60.0903 74.6524L25.0031 74.6524C19.1896 74.6524 14.4769 69.9397 14.4769 64.1263L14.4769 43.0739L14.4769 29.0391C14.4769 23.2256 19.1896 18.5129 25.0031 18.5129V15.0042C25.0031 13.0664 26.574 11.4955 28.5118 11.4955ZM53.0728 25.5303V29.0391C53.0728 30.9769 54.6437 32.5478 56.5816 32.5478C58.5194 32.5478 60.0903 30.9769 60.0903 29.0391V25.5303C62.0281 25.5303 63.599 27.1012 63.599 29.0391L63.599 39.5652L21.4943 39.5652V29.0391C21.4943 27.1012 23.0652 25.5303 25.0031 25.5303V29.0391C25.0031 30.9769 26.574 32.5478 28.5118 32.5478C30.4496 32.5478 32.0205 30.9769 32.0205 29.0391V25.5303L53.0728 25.5303ZM63.599 46.5827V64.1263C63.599 66.0641 62.0281 67.635 60.0903 67.635L25.0031 67.635C23.0652 67.635 21.4943 66.0641 21.4943 64.1263L21.4943 46.5827L63.599 46.5827Z" fill="#999999"/>
<path fill-rule="evenodd" clip-rule="evenodd" d="M28.5118 11.4955C30.4496 11.4955 32.0205 13.0664 32.0205 15.0042V18.5129L53.0728 18.5129V15.0042C53.0728 13.0664 54.6437 11.4955 56.5816 11.4955C58.5194 11.4955 60.0903 13.0664 60.0903 15.0042V18.5129C65.9037 18.5129 70.6164 23.2256 70.6164 29.0391V43.0739V64.1263C70.6164 69.9397 65.9037 74.6524 60.0903 74.6524L25.0031 74.6524C19.1896 74.6524 14.4769 69.9397 14.4769 64.1263L14.4769 43.0739L14.4769 29.0391C14.4769 23.2256 19.1896 18.5129 25.0031 18.5129V15.0042C25.0031 13.0664 26.574 11.4955 28.5118 11.4955ZM53.0728 25.5303V29.0391C53.0728 30.9769 54.6437 32.5478 56.5816 32.5478C58.5194 32.5478 60.0903 30.9769 60.0903 29.0391V25.5303C62.0281 25.5303 63.599 27.1012 63.599 29.0391L63.599 39.5652L21.4943 39.5652V29.0391C21.4943 27.1012 23.0652 25.5303 25.0031 25.5303V29.0391C25.0031 30.9769 26.574 32.5478 28.5118 32.5478C30.4496 32.5478 32.0205 30.9769 32.0205 29.0391V25.5303L53.0728 25.5303ZM63.599 46.5827V64.1263C63.599 66.0641 62.0281 67.635 60.0903 67.635L25.0031 67.635C23.0652 67.635 21.4943 66.0641 21.4943 64.1263L21.4943 46.5827L63.599 46.5827Z" fill="#999999" fill-opacity="0.3"/>
<path fill-rule="evenodd" clip-rule="evenodd" d="M28.5118 11.4955C30.4496 11.4955 32.0205 13.0664 32.0205 15.0042V18.5129L53.0728 18.5129V15.0042C53.0728 13.0664 54.6437 11.4955 56.5816 11.4955C58.5194 11.4955 60.0903 13.0664 60.0903 15.0042V18.5129C65.9037 18.5129 70.6164 23.2256 70.6164 29.0391V43.0739V64.1263C70.6164 69.9397 65.9037 74.6524 60.0903 74.6524L25.0031 74.6524C19.1896 74.6524 14.4769 69.9397 14.4769 64.1263L14.4769 43.0739L14.4769 29.0391C14.4769 23.2256 19.1896 18.5129 25.0031 18.5129V15.0042C25.0031 13.0664 26.574 11.4955 28.5118 11.4955ZM53.0728 25.5303V29.0391C53.0728 30.9769 54.6437 32.5478 56.5816 32.5478C58.5194 32.5478 60.0903 30.9769 60.0903 29.0391V25.5303C62.0281 25.5303 63.599 27.1012 63.599 29.0391L63.599 39.5652L21.4943 39.5652V29.0391C21.4943 27.1012 23.0652 25.5303 25.0031 25.5303V29.0391C25.0031 30.9769 26.574 32.5478 28.5118 32.5478C30.4496 32.5478 32.0205 30.9769 32.0205 29.0391V25.5303L53.0728 25.5303ZM63.599 46.5827V64.1263C63.599 66.0641 62.0281 67.635 60.0903 67.635L25.0031 67.635C23.0652 67.635 21.4943 66.0641 21.4943 64.1263L21.4943 46.5827L63.599 46.5827Z" fill="white" fill-opacity="0.05"/>
</svg>
