<svg width="20" height="20" viewBox="0 0 85 85" fill="none" xmlns="http://www.w3.org/2000/svg">
<path fill-rule="evenodd" clip-rule="evenodd" d="M18.0227 24.5611L18.0227 63.157L67.1448 63.157V34.2901L43.3642 34.2901C41.8738 34.2901 40.4533 33.6582 39.4553 32.5513L32.2512 24.5611L18.0227 24.5611ZM11.0053 22.8067C11.0053 19.9 13.3616 17.5436 16.2684 17.5436L33.0316 17.5436C34.522 17.5436 35.9425 18.1755 36.9405 19.2824L44.1446 27.2727L68.8992 27.2727C71.8059 27.2727 74.1623 29.629 74.1623 32.5357V64.9113C74.1623 67.8181 71.8059 70.1744 68.8992 70.1744L16.2684 70.1744C13.3616 70.1744 11.0053 67.8181 11.0053 64.9113L11.0053 22.8067Z" fill="#999999"/>
<path fill-rule="evenodd" clip-rule="evenodd" d="M18.0227 24.5611L18.0227 63.157L67.1448 63.157V34.2901L43.3642 34.2901C41.8738 34.2901 40.4533 33.6582 39.4553 32.5513L32.2512 24.5611L18.0227 24.5611ZM11.0053 22.8067C11.0053 19.9 13.3616 17.5436 16.2684 17.5436L33.0316 17.5436C34.522 17.5436 35.9425 18.1755 36.9405 19.2824L44.1446 27.2727L68.8992 27.2727C71.8059 27.2727 74.1623 29.629 74.1623 32.5357V64.9113C74.1623 67.8181 71.8059 70.1744 68.8992 70.1744L16.2684 70.1744C13.3616 70.1744 11.0053 67.8181 11.0053 64.9113L11.0053 22.8067Z" fill="#999999" fill-opacity="0.3"/>
<path fill-rule="evenodd" clip-rule="evenodd" d="M18.0227 24.5611L18.0227 63.157L67.1448 63.157V34.2901L43.3642 34.2901C41.8738 34.2901 40.4533 33.6582 39.4553 32.5513L32.2512 24.5611L18.0227 24.5611ZM11.0053 22.8067C11.0053 19.9 13.3616 17.5436 16.2684 17.5436L33.0316 17.5436C34.522 17.5436 35.9425 18.1755 36.9405 19.2824L44.1446 27.2727L68.8992 27.2727C71.8059 27.2727 74.1623 29.629 74.1623 32.5357V64.9113C74.1623 67.8181 71.8059 70.1744 68.8992 70.1744L16.2684 70.1744C13.3616 70.1744 11.0053 67.8181 11.0053 64.9113L11.0053 22.8067Z" fill="white" fill-opacity="0.05"/>
</svg>
