<svg width="20" height="20" viewBox="0 0 85 85" fill="none" xmlns="http://www.w3.org/2000/svg">
<path fill-rule="evenodd" clip-rule="evenodd" d="M44.9029 11.4523C43.4092 10.2251 41.2753 10.2166 39.7722 11.4319L12.0774 33.8237C9.04669 36.274 10.7546 41.228 14.63 41.2281L15.6028 41.2281L15.6028 69.5279C15.6028 71.8227 17.4366 73.683 19.6987 73.683H32.714C32.7471 73.683 32.78 73.6825 32.8129 73.6816H52.3085C52.3481 73.6816 52.3876 73.6809 52.4269 73.6795C52.4788 73.6819 52.5311 73.6831 52.5837 73.6831H64.4426C66.7047 73.6831 68.5385 71.8228 68.5385 69.528V41.2285H69.5791C73.4386 41.2285 75.1562 36.3086 72.157 33.8444L44.9029 11.4523ZM55.7218 66.758H61.712L61.712 38.4584C61.712 37.2093 62.2553 36.0889 63.1153 35.3272L42.3113 18.2346L21.0943 35.3889C21.9146 36.1487 22.4293 37.2425 22.4293 38.4582L22.4293 66.7578H28.4158L28.4158 45.1153C28.4158 43.2029 29.9439 41.6527 31.829 41.6527L52.3085 41.6527C54.1936 41.6527 55.7218 43.2029 55.7218 45.1153V66.758ZM35.2423 66.7564L35.2423 48.5778H48.8953V66.7564H35.2423Z" fill="#999999"/>
<path fill-rule="evenodd" clip-rule="evenodd" d="M44.9029 11.4523C43.4092 10.2251 41.2753 10.2166 39.7722 11.4319L12.0774 33.8237C9.04669 36.274 10.7546 41.228 14.63 41.2281L15.6028 41.2281L15.6028 69.5279C15.6028 71.8227 17.4366 73.683 19.6987 73.683H32.714C32.7471 73.683 32.78 73.6825 32.8129 73.6816H52.3085C52.3481 73.6816 52.3876 73.6809 52.4269 73.6795C52.4788 73.6819 52.5311 73.6831 52.5837 73.6831H64.4426C66.7047 73.6831 68.5385 71.8228 68.5385 69.528V41.2285H69.5791C73.4386 41.2285 75.1562 36.3086 72.157 33.8444L44.9029 11.4523ZM55.7218 66.758H61.712L61.712 38.4584C61.712 37.2093 62.2553 36.0889 63.1153 35.3272L42.3113 18.2346L21.0943 35.3889C21.9146 36.1487 22.4293 37.2425 22.4293 38.4582L22.4293 66.7578H28.4158L28.4158 45.1153C28.4158 43.2029 29.9439 41.6527 31.829 41.6527L52.3085 41.6527C54.1936 41.6527 55.7218 43.2029 55.7218 45.1153V66.758ZM35.2423 66.7564L35.2423 48.5778H48.8953V66.7564H35.2423Z" fill="#999999" fill-opacity="0.3"/>
<path fill-rule="evenodd" clip-rule="evenodd" d="M44.9029 11.4523C43.4092 10.2251 41.2753 10.2166 39.7722 11.4319L12.0774 33.8237C9.04669 36.274 10.7546 41.228 14.63 41.2281L15.6028 41.2281L15.6028 69.5279C15.6028 71.8227 17.4366 73.683 19.6987 73.683H32.714C32.7471 73.683 32.78 73.6825 32.8129 73.6816H52.3085C52.3481 73.6816 52.3876 73.6809 52.4269 73.6795C52.4788 73.6819 52.5311 73.6831 52.5837 73.6831H64.4426C66.7047 73.6831 68.5385 71.8228 68.5385 69.528V41.2285H69.5791C73.4386 41.2285 75.1562 36.3086 72.157 33.8444L44.9029 11.4523ZM55.7218 66.758H61.712L61.712 38.4584C61.712 37.2093 62.2553 36.0889 63.1153 35.3272L42.3113 18.2346L21.0943 35.3889C21.9146 36.1487 22.4293 37.2425 22.4293 38.4582L22.4293 66.7578H28.4158L28.4158 45.1153C28.4158 43.2029 29.9439 41.6527 31.829 41.6527L52.3085 41.6527C54.1936 41.6527 55.7218 43.2029 55.7218 45.1153V66.758ZM35.2423 66.7564L35.2423 48.5778H48.8953V66.7564H35.2423Z" fill="white" fill-opacity="0.05"/>
</svg>
