<svg width="20" height="20" viewBox="0 0 85 85" fill="none" xmlns="http://www.w3.org/2000/svg">
<path fill-rule="evenodd" clip-rule="evenodd" d="M9.75 4.75H11.25H36.25H37.75V6.25L37.75 17.25H51.25H52.75V18.75V43.75V44.3713L52.3107 44.8107L42.3107 54.8107L41.8713 55.25H41.25H26.25H24.75V53.75V42.75H11.25H9.75V41.25V6.25V4.75ZM27.75 41.8713L37.3107 32.3107L37.75 31.8713V31.25L37.75 20.25H49.75V42.25H41.25H39.75V43.75V52.25H27.75V41.8713ZM42.75 50.1287V45.25H47.6287L42.75 50.1287ZM27.75 37.6287V32.75H32.6287L27.75 37.6287ZM34.75 29.75H26.25H24.75V31.25V39.75H12.75V7.75H34.75L34.75 18.75L34.75 29.75Z" fill="#999999"/>
</svg>
