<svg width="20" height="20" viewBox="0 0 85 85" fill="none" xmlns="http://www.w3.org/2000/svg">
<path fill-rule="evenodd" clip-rule="evenodd" d="M24.6075 10.839C20.7319 10.839 17.5901 13.9808 17.5901 17.8564L17.5901 66.9785C17.5901 70.8541 20.7319 73.996 24.6075 73.996L63.2035 73.996C67.0791 73.996 70.2209 70.8541 70.2209 66.9785V31.8913C70.2209 20.2644 60.7955 10.839 49.1686 10.839L24.6075 10.839ZM45.6599 17.8564L24.6075 17.8564L24.6075 66.9785L63.2035 66.9785L63.2035 31.8913L49.1686 31.8913H45.6599V28.3826V17.8564ZM61.3258 24.8739C59.4651 21.6572 56.3644 19.2476 52.6773 18.2986V24.8739L61.3258 24.8739Z" fill="#999999"/>
<path fill-rule="evenodd" clip-rule="evenodd" d="M24.6075 10.839C20.7319 10.839 17.5901 13.9808 17.5901 17.8564L17.5901 66.9785C17.5901 70.8541 20.7319 73.996 24.6075 73.996L63.2035 73.996C67.0791 73.996 70.2209 70.8541 70.2209 66.9785V31.8913C70.2209 20.2644 60.7955 10.839 49.1686 10.839L24.6075 10.839ZM45.6599 17.8564L24.6075 17.8564L24.6075 66.9785L63.2035 66.9785L63.2035 31.8913L49.1686 31.8913H45.6599V28.3826V17.8564ZM61.3258 24.8739C59.4651 21.6572 56.3644 19.2476 52.6773 18.2986V24.8739L61.3258 24.8739Z" fill="#999999" fill-opacity="0.3"/>
<path fill-rule="evenodd" clip-rule="evenodd" d="M24.6075 10.839C20.7319 10.839 17.5901 13.9808 17.5901 17.8564L17.5901 66.9785C17.5901 70.8541 20.7319 73.996 24.6075 73.996L63.2035 73.996C67.0791 73.996 70.2209 70.8541 70.2209 66.9785V31.8913C70.2209 20.2644 60.7955 10.839 49.1686 10.839L24.6075 10.839ZM45.6599 17.8564L24.6075 17.8564L24.6075 66.9785L63.2035 66.9785L63.2035 31.8913L49.1686 31.8913H45.6599V28.3826V17.8564ZM61.3258 24.8739C59.4651 21.6572 56.3644 19.2476 52.6773 18.2986V24.8739L61.3258 24.8739Z" fill="white" fill-opacity="0.05"/>
</svg>
