<svg width="20" height="20" viewBox="0 0 85 85" fill="none" xmlns="http://www.w3.org/2000/svg">
<path fill-rule="evenodd" clip-rule="evenodd" d="M49.9127 25.5303C49.9127 29.406 46.7709 32.5478 42.8953 32.5478C39.0197 32.5478 35.8778 29.406 35.8778 25.5303C35.8778 21.6547 39.0197 18.5129 42.8953 18.5129C46.7709 18.5129 49.9127 21.6547 49.9127 25.5303ZM56.9302 25.5303C56.9302 33.2816 50.6465 39.5652 42.8953 39.5652C35.144 39.5652 28.8604 33.2816 28.8604 25.5303C28.8604 17.7791 35.144 11.4955 42.8953 11.4955C50.6465 11.4955 56.9302 17.7791 56.9302 25.5303ZM25.3517 67.635C25.3517 57.9459 33.2062 50.0914 42.8953 50.0914C52.5843 50.0914 60.4389 57.9459 60.4389 67.635C60.4389 69.5728 62.0098 71.1437 63.9476 71.1437C65.8854 71.1437 67.4563 69.5728 67.4563 67.635C67.4563 54.0703 56.46 43.0739 42.8953 43.0739C29.3306 43.0739 18.3342 54.0703 18.3342 67.635C18.3342 69.5728 19.9051 71.1437 21.8429 71.1437C23.7808 71.1437 25.3517 69.5728 25.3517 67.635Z" fill="#999999"/>
<path fill-rule="evenodd" clip-rule="evenodd" d="M49.9127 25.5303C49.9127 29.406 46.7709 32.5478 42.8953 32.5478C39.0197 32.5478 35.8778 29.406 35.8778 25.5303C35.8778 21.6547 39.0197 18.5129 42.8953 18.5129C46.7709 18.5129 49.9127 21.6547 49.9127 25.5303ZM56.9302 25.5303C56.9302 33.2816 50.6465 39.5652 42.8953 39.5652C35.144 39.5652 28.8604 33.2816 28.8604 25.5303C28.8604 17.7791 35.144 11.4955 42.8953 11.4955C50.6465 11.4955 56.9302 17.7791 56.9302 25.5303ZM25.3517 67.635C25.3517 57.9459 33.2062 50.0914 42.8953 50.0914C52.5843 50.0914 60.4389 57.9459 60.4389 67.635C60.4389 69.5728 62.0098 71.1437 63.9476 71.1437C65.8854 71.1437 67.4563 69.5728 67.4563 67.635C67.4563 54.0703 56.46 43.0739 42.8953 43.0739C29.3306 43.0739 18.3342 54.0703 18.3342 67.635C18.3342 69.5728 19.9051 71.1437 21.8429 71.1437C23.7808 71.1437 25.3517 69.5728 25.3517 67.635Z" fill="#999999" fill-opacity="0.3"/>
<path fill-rule="evenodd" clip-rule="evenodd" d="M49.9127 25.5303C49.9127 29.406 46.7709 32.5478 42.8953 32.5478C39.0197 32.5478 35.8778 29.406 35.8778 25.5303C35.8778 21.6547 39.0197 18.5129 42.8953 18.5129C46.7709 18.5129 49.9127 21.6547 49.9127 25.5303ZM56.9302 25.5303C56.9302 33.2816 50.6465 39.5652 42.8953 39.5652C35.144 39.5652 28.8604 33.2816 28.8604 25.5303C28.8604 17.7791 35.144 11.4955 42.8953 11.4955C50.6465 11.4955 56.9302 17.7791 56.9302 25.5303ZM25.3517 67.635C25.3517 57.9459 33.2062 50.0914 42.8953 50.0914C52.5843 50.0914 60.4389 57.9459 60.4389 67.635C60.4389 69.5728 62.0098 71.1437 63.9476 71.1437C65.8854 71.1437 67.4563 69.5728 67.4563 67.635C67.4563 54.0703 56.46 43.0739 42.8953 43.0739C29.3306 43.0739 18.3342 54.0703 18.3342 67.635C18.3342 69.5728 19.9051 71.1437 21.8429 71.1437C23.7808 71.1437 25.3517 69.5728 25.3517 67.635Z" fill="white" fill-opacity="0.05"/>
</svg>
