<svg width="20" height="20" viewBox="0 0 85 85" fill="none" xmlns="http://www.w3.org/2000/svg">
<path fill-rule="evenodd" clip-rule="evenodd" d="M24.7003 2.25H25.8797H34.1208H35.3002L35.5784 3.39608L36.7473 8.21002L40.6372 9.82128L44.8675 7.24388L45.8747 6.63024L46.7086 7.46419L52.536 13.2916L53.3699 14.1255L52.7563 15.1327L50.1789 19.363L51.7901 23.2529L56.6039 24.4217L57.75 24.7V25.8793V34.1205V35.2999L56.6039 35.5781L51.7901 36.7469L50.1789 40.6368L52.7564 44.8673L53.37 45.8744L52.536 46.7084L46.7087 52.5357L45.8748 53.3697L44.8676 52.756L40.6372 50.1785L36.7473 51.7898L35.5784 56.6039L35.3001 57.75H34.1207H25.8798H24.7004L24.4221 56.6039L23.2532 51.7898L19.3633 50.1785L15.1326 52.7562L14.1254 53.3698L13.2915 52.5359L7.46427 46.7087L6.63032 45.8747L7.24396 44.8676L9.82161 40.6368L8.21035 36.7469L3.39608 35.578L2.25 35.2997V34.1204V25.8795V24.7001L3.39608 24.4218L8.21035 23.2529L9.82161 19.363L7.24403 15.1324L6.63039 14.1252L7.46434 13.2912L13.2916 7.464L14.1255 6.63005L15.1327 7.24369L19.3633 9.82128L23.2532 8.21002L24.4221 3.39608L24.7003 2.25ZM27.0591 5.25L25.9888 9.6582L25.809 10.3986L25.1052 10.6901L19.8075 12.8845L19.1036 13.176L18.453 12.7796L14.5789 10.4193L10.4196 14.5786L12.78 18.4527L13.1764 19.1033L12.8848 19.8072L10.6904 25.1048L10.3989 25.8087L9.65854 25.9884L5.25 27.0588V32.941L9.65854 34.0114L10.3989 34.1911L10.6904 34.895L12.8848 40.1927L13.1764 40.8965L12.78 41.5471L10.4195 45.4213L14.5788 49.5806L18.453 47.2202L19.1036 46.8238L19.8075 47.1154L25.1052 49.3097L25.809 49.6013L25.9888 50.3416L27.0591 54.75H32.9414L34.0117 50.3416L34.1915 49.6013L34.8953 49.3097L40.193 47.1154L40.8969 46.8238L41.5475 47.2202L45.4213 49.5804L49.5808 45.421L47.2205 41.5471L46.8242 40.8965L47.1157 40.1927L49.3101 34.895L49.6016 34.1911L50.342 34.0114L54.75 32.9411V27.0587L50.342 25.9884L49.6016 25.8087L49.3101 25.1048L47.1157 19.8072L46.8242 19.1033L47.2205 18.4527L49.5807 14.5789L45.4212 10.4195L41.5475 12.7796L40.8969 13.176L40.193 12.8845L34.8953 10.6901L34.1915 10.3986L34.0117 9.6582L32.9414 5.25H27.0591ZM19.75 30C19.75 24.3391 24.3391 19.75 30 19.75C35.6609 19.75 40.25 24.3391 40.25 30C40.25 35.6609 35.6609 40.25 30 40.25C24.3391 40.25 19.75 35.6609 19.75 30ZM30 22.75C25.9959 22.75 22.75 25.9959 22.75 30C22.75 34.0041 25.9959 37.25 30 37.25C34.0041 37.25 37.25 34.0041 37.25 30C37.25 25.9959 34.0041 22.75 30 22.75Z" fill="#999999"/>
</svg>
